<svg xmlns="http://www.w3.org/2000/svg" viewBox="0 0 350 60" width="350" height="60" role="img" aria-label="unglue">
<rect x="0" y="0" width="10" height="20" fill="#e6edf3"/>
<rect x="40" y="0" width="10" height="20" fill="#e6edf3"/>
<rect x="60" y="0" width="10" height="20" fill="#e6edf3"/>
<rect x="70" y="10" width="10" height="10" fill="#e6edf3"/>
<rect x="100" y="0" width="10" height="20" fill="#e6edf3"/>
<rect x="120" y="10" width="10" height="10" fill="#e6edf3"/>
<rect x="130" y="0" width="10" height="10" fill="#e6edf3"/>
<rect x="140" y="0" width="10" height="10" fill="#e6edf3"/>
<rect x="150" y="0" width="10" height="10" fill="#e6edf3"/>
<rect x="180" y="0" width="10" height="20" fill="#e6edf3"/>
<rect x="240" y="0" width="10" height="20" fill="#e6edf3"/>
<rect x="280" y="0" width="10" height="20" fill="#e6edf3"/>
<rect x="300" y="0" width="10" height="20" fill="#e6edf3"/>
<rect x="310" y="0" width="10" height="10" fill="#e6edf3"/>
<rect x="320" y="0" width="10" height="10" fill="#e6edf3"/>
<rect x="330" y="0" width="10" height="10" fill="#e6edf3"/>
<rect x="340" y="0" width="10" height="10" fill="#e6edf3"/>
<rect x="0" y="20" width="10" height="20" fill="#e6edf3"/>
<rect x="40" y="20" width="10" height="20" fill="#e6edf3"/>
<rect x="60" y="20" width="10" height="20" fill="#e6edf3"/>
<rect x="80" y="20" width="10" height="10" fill="#e6edf3"/>
<rect x="90" y="30" width="10" height="10" fill="#e6edf3"/>
<rect x="100" y="20" width="10" height="20" fill="#e6edf3"/>
<rect x="120" y="20" width="10" height="20" fill="#e6edf3"/>
<rect x="140" y="20" width="10" height="10" fill="#e6edf3"/>
<rect x="150" y="20" width="10" height="10" fill="#e6edf3"/>
<rect x="160" y="20" width="10" height="20" fill="#e6edf3"/>
<rect x="180" y="20" width="10" height="20" fill="#e6edf3"/>
<rect x="240" y="20" width="10" height="20" fill="#e6edf3"/>
<rect x="280" y="20" width="10" height="20" fill="#e6edf3"/>
<rect x="300" y="20" width="10" height="20" fill="#e6edf3"/>
<rect x="310" y="20" width="10" height="10" fill="#e6edf3"/>
<rect x="320" y="20" width="10" height="10" fill="#e6edf3"/>
<rect x="330" y="20" width="10" height="10" fill="#e6edf3"/>
<rect x="0" y="40" width="10" height="10" fill="#e6edf3"/>
<rect x="10" y="50" width="10" height="10" fill="#e6edf3"/>
<rect x="20" y="50" width="10" height="10" fill="#e6edf3"/>
<rect x="30" y="50" width="10" height="10" fill="#e6edf3"/>
<rect x="40" y="40" width="10" height="10" fill="#e6edf3"/>
<rect x="60" y="40" width="10" height="20" fill="#e6edf3"/>
<rect x="100" y="40" width="10" height="20" fill="#e6edf3"/>
<rect x="120" y="40" width="10" height="10" fill="#e6edf3"/>
<rect x="130" y="50" width="10" height="10" fill="#e6edf3"/>
<rect x="140" y="50" width="10" height="10" fill="#e6edf3"/>
<rect x="150" y="50" width="10" height="10" fill="#e6edf3"/>
<rect x="160" y="40" width="10" height="10" fill="#e6edf3"/>
<rect x="180" y="40" width="10" height="20" fill="#e6edf3"/>
<rect x="190" y="50" width="10" height="10" fill="#e6edf3"/>
<rect x="200" y="50" width="10" height="10" fill="#e6edf3"/>
<rect x="210" y="50" width="10" height="10" fill="#e6edf3"/>
<rect x="220" y="50" width="10" height="10" fill="#e6edf3"/>
<rect x="240" y="40" width="10" height="10" fill="#e6edf3"/>
<rect x="250" y="50" width="10" height="10" fill="#e6edf3"/>
<rect x="260" y="50" width="10" height="10" fill="#e6edf3"/>
<rect x="270" y="50" width="10" height="10" fill="#e6edf3"/>
<rect x="280" y="40" width="10" height="10" fill="#e6edf3"/>
<rect x="300" y="40" width="10" height="20" fill="#e6edf3"/>
<rect x="310" y="50" width="10" height="10" fill="#e6edf3"/>
<rect x="320" y="50" width="10" height="10" fill="#e6edf3"/>
<rect x="330" y="50" width="10" height="10" fill="#e6edf3"/>
<rect x="340" y="50" width="10" height="10" fill="#e6edf3"/>
</svg>
